<svg xmlns="http://www.w3.org/2000/svg" width="204.633" height="49.835" viewBox="0 0 204.633 49.835">
  <g id="Group_4" data-name="Group 4" transform="translate(-8.843 -9.074)">
    <g id="Group_3" data-name="Group 3" transform="translate(8.843 9.074)">
      <g id="Group_1" data-name="Group 1" transform="translate(0)">
        <path id="Path_2" data-name="Path 2" d="M949.091,20.167v-.092a5.333,5.333,0,0,0,3.676-5.178,5.375,5.375,0,0,0-1.709-4.159,7.741,7.741,0,0,0-5.005-1.664h-1.165a44.833,44.833,0,0,0-5.641.372v20.56h3.675V21.462H944.8a2.812,2.812,0,0,1,1.255.182c1.247.372,1.876,1.294,2.322,3.424a29.292,29.292,0,0,0,1.344,4.936h3.76c-.359-.835-.895-3.177-1.528-5.772C951.42,22.2,950.615,20.721,949.091,20.167Zm-3.037-1.57c-.359,0-.629.092-.991.092h-2.14V12.125a10.6,10.6,0,0,1,2.322-.187h.809c1.876.278,3.037,1.3,3.037,3.334A3.285,3.285,0,0,1,946.053,18.6Z" transform="translate(-765.099 -9.074)" fill="#307fe2"/>
        <path id="Path_3" data-name="Path 3" d="M1040.2,18.027c-2.683-1.009-3.849-1.74-3.849-3.3,0-1.284.989-2.57,3.313-2.57a8.86,8.86,0,0,1,4.028,1.009l.892-3.029a10.668,10.668,0,0,0-4.829-1.006c-4.391,0-7.167,2.569-7.167,5.874,0,3.025,2.156,4.863,5.464,6.054,2.594.917,3.578,1.832,3.578,3.4,0,1.65-1.34,2.843-3.667,2.843a9.522,9.522,0,0,1-4.836-1.374l-.8,3.114a10.85,10.85,0,0,0,5.462,1.377c5.184,0,7.6-2.934,7.6-6.237C1045.391,21.237,1043.694,19.4,1040.2,18.027Z" transform="translate(-840.759 -9.118)" fill="#307fe2"/>
        <path id="Path_4" data-name="Path 4" d="M510.161,10.649l-2.84,8.235c-.733,2.456-1.472,5.02-2,7.27h-.1c-.527-2.354-1.159-4.814-1.893-7.164l-2.633-8.34h-4.937l-1.264,20.637h3.471l.42-8.231c.1-2.891.208-6.2.311-8.879h.1a75.733,75.733,0,0,0,2.108,8.02l2.628,8.879h2.84l3.048-8.986c.84-2.565,1.683-5.346,2.417-7.912,0,2.778.21,5.988.316,8.664l.317,8.446h3.678L515,10.649Z" transform="translate(-403.593 -10.354)" fill="#307fe2"/>
        <path id="Path_5" data-name="Path 5" d="M637.49,9.238h-.162c-5.586.085-9.446,4.512-9.446,10.774,0,6.008,3.615,10.435,9.281,10.435h.165c5.5-.08,9.526-4.009,9.526-10.771C646.854,13.75,643.4,9.238,637.49,9.238Zm-.162,18.206c-3.532,0-5.586-3.426-5.586-7.52s1.888-7.681,5.586-7.681,5.582,3.677,5.582,7.515C642.911,24.1,640.942,27.444,637.328,27.444Z" transform="translate(-512.014 -9.207)" fill="#307fe2"/>
        <path id="Path_6" data-name="Path 6" d="M830.165,9.238H830c-5.59.085-9.451,4.512-9.451,10.774,0,6.008,3.614,10.435,9.285,10.435H830c5.5-.08,9.518-4.009,9.518-10.771C839.517,13.75,836.069,9.238,830.165,9.238ZM830,27.444c-3.538,0-5.59-3.426-5.59-7.52s1.886-7.681,5.59-7.681,5.575,3.677,5.575,7.515C835.574,24.1,833.608,27.444,830,27.444Z" transform="translate(-668.618 -9.207)" fill="#307fe2"/>
        <path id="Path_7" data-name="Path 7" d="M734.506,13.819h5.832V31.285h3.7V13.819h5.747v-3.17H734.506Z" transform="translate(-598.68 -10.354)" fill="#307fe2"/>
        <path id="Path_8" data-name="Path 8" d="M28.44,10.649H8.843v6.063h5.81V31.285h8.165V16.712H28.44Z" transform="translate(-8.843 -10.354)" fill="#307fe2"/>
        <path id="Path_9" data-name="Path 9" d="M110.325,10.649l-7.694,20.637h7.843l4.127-12.3,4.177,12.3h7.938L118.84,10.649Z" transform="translate(-85.076 -10.354)" fill="#307fe2"/>
        <path id="Path_10" data-name="Path 10" d="M240.909,10.649h-19.6v6.063h5.809V31.285h8.166V16.712h5.621Z" transform="translate(-181.543 -10.354)" fill="#307fe2"/>
        <path id="Path_11" data-name="Path 11" d="M322.783,10.649l-7.692,20.637h7.844l4.125-12.3,4.179,12.3h7.937L331.3,10.649Z" transform="translate(-257.769 -10.354)" fill="#307fe2"/>
      </g>
      <g id="Group_2" data-name="Group 2" transform="translate(0.065 30.18)">
        <path id="Path_12" data-name="Path 12" d="M14.52,185.957c-3.227,0-5.328-1.953-5.328-5.136v-5.371c0-3.184,2.123-5.136,5.264-5.136a7.276,7.276,0,0,1,4.5,1.549A.142.142,0,0,1,19,172.1l-.425.616a.157.157,0,0,1-.254.021,6.5,6.5,0,0,0-3.885-1.316,3.747,3.747,0,0,0-4.076,4.033v5.371a3.759,3.759,0,0,0,4.118,4.033,6.5,6.5,0,0,0,4.182-1.507.15.15,0,0,1,.254.043l.425.615a.163.163,0,0,1-.043.255A7.321,7.321,0,0,1,14.52,185.957Z" transform="translate(-9.192 -170.313)" fill="#307fe2"/>
        <path id="Path_13" data-name="Path 13" d="M77.662,204.393c-2.866,0-4.522-1.719-4.522-4.076v-3.227c0-2.335,1.655-4.1,4.522-4.1,2.885,0,4.52,1.762,4.52,4.1v3.227C82.181,202.675,80.547,204.393,77.662,204.393Zm0-1.019c2.271,0,3.4-1.3,3.4-3.057v-3.227c0-1.762-1.125-3.057-3.4-3.057-2.23,0-3.376,1.3-3.376,3.057v3.227C74.286,202.079,75.432,203.374,77.662,203.374Z" transform="translate(-61.171 -188.749)" fill="#307fe2"/>
        <path id="Path_14" data-name="Path 14" d="M136.023,204.16a.173.173,0,0,1-.191-.17v-9.956a.221.221,0,0,1,.149-.212,9.935,9.935,0,0,1,3.947-.827c2.823,0,4.607,1.4,4.607,4.415v6.58a.156.156,0,0,1-.17.17H143.6a.173.173,0,0,1-.19-.17v-6.538c0-2.377-1.252-3.418-3.482-3.418a9.179,9.179,0,0,0-2.971.509v9.446a.156.156,0,0,1-.17.17Z" transform="translate(-112.128 -188.749)" fill="#307fe2"/>
        <path id="Path_15" data-name="Path 15" d="M198.5,204.16a.173.173,0,0,1-.19-.17v-9.956a.221.221,0,0,1,.149-.212,9.937,9.937,0,0,1,3.947-.827c2.824,0,4.607,1.4,4.607,4.415v6.58a.156.156,0,0,1-.17.17h-.765a.173.173,0,0,1-.19-.17v-6.538c0-2.377-1.252-3.418-3.482-3.418a9.17,9.17,0,0,0-2.971.509v9.446a.156.156,0,0,1-.17.17Z" transform="translate(-162.908 -188.749)" fill="#307fe2"/>
        <path id="Path_16" data-name="Path 16" d="M267.624,199.108a.174.174,0,0,1-.19.17h-7.324v1.189a2.926,2.926,0,0,0,3.206,2.908,5.1,5.1,0,0,0,3.46-1.359c.106-.063.19-.063.255.043l.381.488c.086.085.086.17-.021.255a6.072,6.072,0,0,1-4.1,1.592c-2.251,0-4.331-1.4-4.331-3.926v-3.354c0-2.717,1.931-4.118,4.352-4.118,2.4,0,4.309,1.4,4.309,4.118Zm-4.309-5.074a2.872,2.872,0,0,0-3.206,3.078v1.21h6.41v-1.21A2.91,2.91,0,0,0,263.315,194.034Z" transform="translate(-212.212 -188.749)" fill="#307fe2"/>
        <path id="Path_17" data-name="Path 17" d="M321.361,204.393c-2.717,0-4.352-1.74-4.352-4.012v-3.375c0-2.271,1.635-4.011,4.352-4.011a5.812,5.812,0,0,1,3.417,1.1c.106.086.127.17.063.256l-.36.551a.193.193,0,0,1-.256.042,4.848,4.848,0,0,0-2.865-.913,2.917,2.917,0,0,0-3.228,2.972v3.375a2.932,2.932,0,0,0,3.228,2.993,5.217,5.217,0,0,0,3.141-1.082.159.159,0,0,1,.255.021l.36.531c.063.105.063.19-.021.254A5.839,5.839,0,0,1,321.361,204.393Z" transform="translate(-259.394 -188.749)" fill="#307fe2"/>
        <path id="Path_18" data-name="Path 18" d="M375.018,192.546c.276,0,.763-.022,1.166-.043.107-.022.17.043.17.17v.679c0,.106-.041.17-.17.191-.381.043-.912.063-1.209.063-2.081,0-3.439-1.252-3.439-3.608v-10.1a.156.156,0,0,1,.17-.17h.679a.187.187,0,0,1,.192.17l.063,2.589h3.247a.173.173,0,0,1,.17.191v.658a.156.156,0,0,1-.17.17h-3.227v6.453C372.661,191.569,373.467,192.546,375.018,192.546Z" transform="translate(-303.715 -177.963)" fill="#307fe2"/>
        <path id="Path_19" data-name="Path 19" d="M406.887,175.674a.754.754,0,1,1,.743-.743A.731.731,0,0,1,406.887,175.674Zm-.4,13.182a.156.156,0,0,1-.17-.17V178.115c0-.127.063-.19.17-.19h.786c.106,0,.17.063.17.19v10.571a.156.156,0,0,1-.17.17Z" transform="translate(-331.827 -173.446)" fill="#307fe2"/>
        <path id="Path_20" data-name="Path 20" d="M429.892,204.16a.173.173,0,0,1-.19-.17v-9.956a.221.221,0,0,1,.149-.212,9.936,9.936,0,0,1,3.947-.827c2.823,0,4.607,1.4,4.607,4.415v6.58a.156.156,0,0,1-.17.17h-.765a.173.173,0,0,1-.191-.17v-6.538c0-2.377-1.252-3.418-3.482-3.418a9.172,9.172,0,0,0-2.971.509v9.446a.156.156,0,0,1-.17.17Z" transform="translate(-350.993 -188.749)" fill="#307fe2"/>
        <path id="Path_21" data-name="Path 21" d="M494.526,208.405a5.751,5.751,0,0,1-4.033-1.592c-.086-.063-.086-.149-.022-.255l.383-.552a.139.139,0,0,1,.233-.021,5.065,5.065,0,0,0,3.439,1.4c2.208,0,3.184-1.167,3.163-3.248v-1.061a7.4,7.4,0,0,1-3.036.7c-2.674,0-4.522-1.4-4.522-4.266v-2.229c0-3.035,1.931-4.287,4.607-4.287a10.532,10.532,0,0,1,3.926.785.222.222,0,0,1,.149.213v10.231C498.814,206.707,497.519,208.405,494.526,208.405Zm.191-5.647a6.284,6.284,0,0,0,2.973-.743V194.5a10.242,10.242,0,0,0-2.973-.468c-2.144,0-3.439.956-3.439,3.248v2.229C491.277,201.825,492.658,202.758,494.716,202.758Z" transform="translate(-400.112 -188.749)" fill="#307fe2"/>
        <path id="Path_22" data-name="Path 22" d="M569.671,186.737c-.106,0-.17-.085-.127-.213l5.434-14.816a.227.227,0,0,1,.192-.148h1.06a.227.227,0,0,1,.192.148l5.455,14.816c.021.128-.021.213-.149.213h-.87a.231.231,0,0,1-.213-.148L579.1,182.3H572.3l-1.549,4.288a.227.227,0,0,1-.192.148Zm2.993-5.519h6.07l-2.992-8.3h-.065Z" transform="translate(-464.65 -171.327)" fill="#307fe2"/>
        <path id="Path_23" data-name="Path 23" d="M645.081,204.393a6.581,6.581,0,0,1-4.1-1.379.159.159,0,0,1-.063-.234l.36-.594a.151.151,0,0,1,.255-.042,5.9,5.9,0,0,0,3.564,1.231c1.741,0,2.973-.743,2.973-2.123,0-1.507-1.571-1.825-2.973-2.123-1.655-.318-4.01-.955-4.01-3.227,0-1.91,1.8-2.907,3.926-2.907a7.3,7.3,0,0,1,3.715,1.019.164.164,0,0,1,.063.254l-.34.574a.175.175,0,0,1-.256.063,6.534,6.534,0,0,0-3.227-.871c-1.655,0-2.781.7-2.781,1.868,0,1.465,1.528,1.868,3.12,2.208,1.825.382,3.906.849,3.906,3.1C649.22,203.162,647.628,204.393,645.081,204.393Z" transform="translate(-522.656 -188.749)" fill="#307fe2"/>
        <path id="Path_24" data-name="Path 24" d="M701.846,192.995c2.758,0,4.585,1.4,4.585,4.564v2.293c0,2.993-1.784,4.542-4.544,4.542a5.9,5.9,0,0,1-3.034-.849v4.479a.156.156,0,0,1-.17.17h-.765a.173.173,0,0,1-.19-.17V193.971a.215.215,0,0,1,.127-.213A11.223,11.223,0,0,1,701.846,192.995Zm3.437,6.856v-2.293c0-2.526-1.273-3.545-3.46-3.545a8.611,8.611,0,0,0-2.971.509v7.917a5.3,5.3,0,0,0,2.971.934C704.054,203.374,705.284,202.313,705.284,199.851Z" transform="translate(-568.852 -188.749)" fill="#307fe2"/>
        <path id="Path_25" data-name="Path 25" d="M758.464,175.674a.754.754,0,1,1,.743-.743A.731.731,0,0,1,758.464,175.674Zm-.4,13.182a.156.156,0,0,1-.17-.17V178.115c0-.127.064-.19.17-.19h.786c.106,0,.17.063.17.19v10.571a.156.156,0,0,1-.17.17Z" transform="translate(-617.598 -173.446)" fill="#307fe2"/>
        <path id="Path_26" data-name="Path 26" d="M781.469,204.16a.174.174,0,0,1-.191-.17V193.971a.222.222,0,0,1,.149-.213,8.759,8.759,0,0,1,3.587-.763,15.137,15.137,0,0,1,2.165.19.172.172,0,0,1,.17.191v.658a.149.149,0,0,1-.191.149,12.689,12.689,0,0,0-2.017-.17,7.387,7.387,0,0,0-2.738.509v9.467a.156.156,0,0,1-.17.17Z" transform="translate(-636.763 -188.749)" fill="#307fe2"/>
        <path id="Path_27" data-name="Path 27" d="M822.856,192.995c2.633,0,4.055,1.464,4.055,4.011v6.453a.222.222,0,0,1-.149.213,11.4,11.4,0,0,1-3.949.721c-2.441,0-4.456-1.146-4.456-3.438,0-2.186,1.719-3.354,4.456-3.354a16.67,16.67,0,0,1,2.973.34v-.912c0-1.89-.828-2.993-2.973-2.993a6.381,6.381,0,0,0-3.247.871.154.154,0,0,1-.233-.042l-.362-.552c-.063-.085-.063-.17,0-.213A6.8,6.8,0,0,1,822.856,192.995Zm-.043,10.379a9.261,9.261,0,0,0,2.973-.509v-3.948a15.007,15.007,0,0,0-2.973-.318c-2.208,0-3.311.849-3.311,2.356C819.5,202.483,820.882,203.374,822.813,203.374Z" transform="translate(-666.902 -188.749)" fill="#307fe2"/>
        <path id="Path_28" data-name="Path 28" d="M883.056,192.546c.276,0,.763-.022,1.167-.043.106-.022.17.043.17.17v.679a.171.171,0,0,1-.17.191c-.381.043-.912.063-1.209.063-2.081,0-3.439-1.252-3.439-3.608v-10.1a.156.156,0,0,1,.17-.17h.679a.187.187,0,0,1,.192.17l.063,2.589h3.247a.173.173,0,0,1,.17.191v.658a.156.156,0,0,1-.17.17H880.7v6.453C880.7,191.569,881.505,192.546,883.056,192.546Z" transform="translate(-716.661 -177.963)" fill="#307fe2"/>
        <path id="Path_29" data-name="Path 29" d="M914.925,175.674a.754.754,0,1,1,.743-.743A.731.731,0,0,1,914.925,175.674Zm-.4,13.182a.156.156,0,0,1-.17-.17V178.115c0-.127.063-.19.17-.19h.786c.1,0,.17.063.17.19v10.571a.157.157,0,0,1-.17.17Z" transform="translate(-744.773 -173.446)" fill="#307fe2"/>
        <path id="Path_30" data-name="Path 30" d="M940.335,204.393c-2.865,0-4.52-1.719-4.52-4.076v-3.227c0-2.335,1.655-4.1,4.52-4.1,2.889,0,4.522,1.762,4.522,4.1v3.227C944.856,202.675,943.223,204.393,940.335,204.393Zm0-1.019c2.273,0,3.4-1.3,3.4-3.057v-3.227c0-1.762-1.124-3.057-3.4-3.057-2.228,0-3.374,1.3-3.374,3.057v3.227C936.961,202.079,938.107,203.374,940.335,203.374Z" transform="translate(-762.375 -188.749)" fill="#307fe2"/>
        <path id="Path_31" data-name="Path 31" d="M998.7,204.16a.173.173,0,0,1-.19-.17v-9.956a.221.221,0,0,1,.149-.212,9.935,9.935,0,0,1,3.947-.827c2.823,0,4.607,1.4,4.607,4.415v6.58a.156.156,0,0,1-.17.17h-.765a.173.173,0,0,1-.19-.17v-6.538c0-2.377-1.252-3.418-3.482-3.418a9.171,9.171,0,0,0-2.971.509v9.446a.156.156,0,0,1-.17.17Z" transform="translate(-813.333 -188.749)" fill="#307fe2"/>
        <path id="Path_32" data-name="Path 32" d="M1061.284,204.393a6.581,6.581,0,0,1-4.1-1.379.159.159,0,0,1-.063-.234l.36-.594a.151.151,0,0,1,.256-.042,5.9,5.9,0,0,0,3.564,1.231c1.741,0,2.973-.743,2.973-2.123,0-1.507-1.571-1.825-2.973-2.123-1.655-.318-4.01-.955-4.01-3.227,0-1.91,1.8-2.907,3.926-2.907a7.3,7.3,0,0,1,3.715,1.019.164.164,0,0,1,.063.254l-.34.574a.174.174,0,0,1-.255.063,6.534,6.534,0,0,0-3.226-.871c-1.656,0-2.781.7-2.781,1.868,0,1.465,1.528,1.868,3.12,2.208,1.825.382,3.906.849,3.906,3.1C1065.423,203.162,1063.831,204.393,1061.284,204.393Z" transform="translate(-860.957 -188.749)" fill="#307fe2"/>
      </g>
    </g>
  </g>
</svg>
